<?xml version="1.0" encoding="UTF-8"?>
<svg id="Layer_1" data-name="Layer 1" xmlns="http://www.w3.org/2000/svg" viewBox="0 0 1398 474">
  <defs>
    <style>
      .cls-1 {
        fill: #c3c5c7;
      }

      .cls-2 {
        stroke-dasharray: 11.98 11.98;
      }

      .cls-2, .cls-3 {
        fill: none;
        stroke: #c3c5c7;
        stroke-miterlimit: 10;
        stroke-width: 2px;
      }

      .cls-3 {
        stroke-dasharray: 12 12;
      }

      .cls-4 {
        fill: #252b36;
      }
    </style>
  </defs>
  <rect class="cls-4" x="-4.14" y="-2" width="1401.1" height="476.07"/>
  <line class="cls-3" x1="-170.04" y1="176.07" x2="1432.46" y2="176.07"/>
  <g>
    <line class="cls-1" x1="-139.41" y1="233.77" x2="1610.04" y2="233.51"/>
    <line class="cls-2" x1="-121.43" y1="233.76" x2="1598.05" y2="233.51"/>
  </g>
  <line class="cls-3" x1="-17.92" y1="370.56" x2="1584.58" y2="370.56"/>
  <g>
    <path class="cls-1" d="M66.86,227.19l10.52-14.9v3.95l-9.7-14.43h6.05l2.79,4.26c.52.81.95,1.53,1.29,2.17.34.64.64,1.26.92,1.86.28.6.59,1.21.93,1.85h-1.39c.34-.64.66-1.25.94-1.84s.6-1.21.94-1.86c.34-.65.77-1.37,1.3-2.18l2.84-4.26h5.92l-9.53,14.14v-3.76l10.28,15.01h-6.19l-3.54-5.31c-.47-.72-.85-1.32-1.14-1.82-.29-.5-.55-.97-.79-1.42-.23-.45-.5-.95-.81-1.51h.82c-.3.54-.56,1.04-.8,1.49-.24.45-.51.93-.8,1.43-.3.51-.68,1.12-1.16,1.83l-3.66,5.31h-6.04Z"/>
    <path class="cls-1" d="M104.44,214.71v4.09h-11.6v-4.09h11.6Z"/>
    <path class="cls-1" d="M122.45,216.17v11.02h-5.13v-25.38h5.03v11.09h-.41c.5-1.59,1.26-2.82,2.28-3.69s2.34-1.3,3.96-1.3c1.32,0,2.48.29,3.46.86.99.57,1.75,1.4,2.3,2.47.55,1.07.82,2.35.82,3.84v12.11h-5.15v-11.22c0-1.18-.31-2.11-.92-2.78-.61-.67-1.46-1-2.54-1-.72,0-1.36.16-1.92.47-.56.31-1,.76-1.32,1.35s-.47,1.31-.47,2.16Z"/>
    <path class="cls-1" d="M147.76,227.56c-1.95,0-3.63-.4-5.04-1.19-1.41-.79-2.5-1.92-3.26-3.39s-1.14-3.2-1.14-5.21.38-3.68,1.13-5.16c.75-1.48,1.82-2.63,3.2-3.46,1.38-.83,3-1.24,4.86-1.24,1.25,0,2.42.2,3.51.6,1.08.4,2.04,1,2.86,1.8.82.8,1.46,1.8,1.92,3.01.46,1.2.69,2.62.69,4.26v1.43h-16.06v-3.2h13.55l-2.39.85c0-.99-.15-1.85-.45-2.58-.3-.73-.75-1.3-1.35-1.7-.6-.4-1.34-.6-2.21-.6s-1.64.2-2.27.61-1.09.96-1.41,1.66c-.32.7-.48,1.5-.48,2.39v2.27c0,1.1.19,2.03.56,2.78s.89,1.31,1.56,1.69,1.44.56,2.33.56c.6,0,1.15-.08,1.64-.26s.91-.42,1.26-.76.61-.75.8-1.23l4.65.87c-.31,1.04-.84,1.96-1.61,2.75-.76.79-1.72,1.4-2.86,1.83-1.15.43-2.47.65-3.96.65Z"/>
    <path class="cls-1" d="M162.55,205.66c-.78,0-1.44-.26-1.98-.77-.55-.51-.82-1.13-.82-1.86s.27-1.35.82-1.86c.55-.51,1.21-.77,1.98-.77s1.44.26,1.99.77c.55.51.83,1.13.83,1.86s-.28,1.35-.83,1.86c-.55.51-1.22.77-1.99.77ZM159.99,227.19v-19.04h5.13v19.04h-5.13Z"/>
    <path class="cls-1" d="M177.98,234.72c-1.6,0-2.99-.2-4.17-.6-1.19-.4-2.15-.96-2.89-1.66-.74-.7-1.25-1.5-1.54-2.4l4.41-1.23c.16.35.41.7.74,1.03s.78.61,1.34.83c.56.22,1.25.32,2.07.32,1.31,0,2.34-.3,3.09-.89s1.12-1.52,1.12-2.78v-3.51h-.39c-.23.51-.56,1-.99,1.48-.43.48-1,.87-1.7,1.17s-1.57.45-2.61.45c-1.44,0-2.74-.33-3.92-1s-2.11-1.69-2.81-3.07c-.7-1.37-1.05-3.11-1.05-5.21s.36-3.94,1.07-5.38,1.66-2.53,2.84-3.25c1.18-.73,2.48-1.09,3.89-1.09,1.07,0,1.97.18,2.7.54.73.36,1.32.81,1.77,1.35.45.54.79,1.06,1.02,1.56h.22v-3.2h5.04v18.89c0,1.71-.4,3.14-1.19,4.27s-1.88,1.99-3.27,2.56c-1.39.57-2.99.85-4.79.85ZM178.06,223.03c.88,0,1.62-.22,2.23-.65.61-.43,1.07-1.05,1.39-1.86.32-.81.48-1.79.48-2.92s-.16-2.11-.48-2.95c-.32-.84-.78-1.49-1.39-1.96-.61-.47-1.35-.7-2.23-.7s-1.66.24-2.27.72c-.61.48-1.07,1.14-1.39,1.98s-.47,1.81-.47,2.9.16,2.08.47,2.89c.31.81.78,1.44,1.39,1.88.62.44,1.37.66,2.26.66Z"/>
    <path class="cls-1" d="M196.74,216.17v11.02h-5.13v-25.38h5.03v11.09h-.41c.5-1.59,1.26-2.82,2.28-3.69s2.34-1.3,3.96-1.3c1.32,0,2.48.29,3.46.86.99.57,1.75,1.4,2.3,2.47.55,1.07.82,2.35.82,3.84v12.11h-5.15v-11.22c0-1.18-.31-2.11-.92-2.78-.61-.67-1.46-1-2.54-1-.72,0-1.36.16-1.92.47-.56.31-1,.76-1.32,1.35s-.47,1.31-.47,2.16Z"/>
    <path class="cls-1" d="M222.91,208.15v3.9h-11.34v-3.9h11.34ZM214.2,203.62h5.13v18c0,.6.13,1.05.4,1.34s.72.43,1.34.43c.19,0,.47-.03.82-.08.35-.05.62-.1.8-.14l.74,3.83c-.57.17-1.14.29-1.7.36-.56.07-1.1.1-1.62.1-1.92,0-3.38-.47-4.4-1.4-1.02-.93-1.52-2.27-1.52-4v-18.45Z"/>
  </g>
  <g>
    <path class="cls-1" d="M78.38,169.7c-2.26,0-4.28-.51-6.06-1.53-1.78-1.02-3.19-2.5-4.22-4.45-1.03-1.94-1.55-4.29-1.55-7.03s.52-5.11,1.56-7.06c1.04-1.95,2.45-3.43,4.24-4.45s3.8-1.53,6.04-1.53c1.45,0,2.8.2,4.04.6,1.25.4,2.36.99,3.33,1.76.97.77,1.76,1.72,2.38,2.84.62,1.12,1.02,2.39,1.21,3.82h-5.28c-.11-.7-.33-1.33-.66-1.87-.33-.54-.73-1-1.21-1.38-.48-.38-1.04-.67-1.67-.87-.63-.2-1.31-.3-2.04-.3-1.32,0-2.48.33-3.48.99-1,.66-1.77,1.62-2.33,2.87-.55,1.25-.83,2.78-.83,4.57s.28,3.37.84,4.62c.56,1.25,1.33,2.19,2.33,2.83.99.64,2.14.95,3.46.95.73,0,1.4-.1,2.03-.3.62-.2,1.18-.49,1.68-.87.5-.38.91-.84,1.23-1.39.32-.54.55-1.16.68-1.86h5.28c-.14,1.18-.49,2.31-1.05,3.39s-1.31,2.04-2.25,2.9c-.94.85-2.05,1.52-3.33,2.01-1.29.49-2.74.73-4.34.73Z"/>
    <path class="cls-1" d="M98.37,169.73c-1.21,0-2.29-.21-3.26-.64-.96-.43-1.72-1.06-2.27-1.91-.55-.85-.83-1.9-.83-3.16,0-1.06.2-1.94.59-2.66.39-.72.93-1.29,1.61-1.72.68-.43,1.45-.76,2.31-.99.86-.23,1.76-.39,2.71-.48,1.11-.11,2-.22,2.68-.32.68-.1,1.17-.25,1.49-.46.31-.21.47-.52.47-.93v-.08c0-.54-.11-1-.34-1.38-.23-.38-.57-.66-1.02-.86-.45-.2-.99-.3-1.63-.3s-1.24.1-1.73.3c-.49.2-.89.46-1.2.79-.31.33-.54.7-.68,1.11l-4.7-.77c.33-1.11.88-2.06,1.64-2.83.76-.77,1.71-1.36,2.85-1.77,1.13-.41,2.41-.61,3.84-.61,1.03,0,2.02.12,2.99.37.97.24,1.84.62,2.61,1.13.77.51,1.38,1.18,1.83,2,.45.82.68,1.81.68,2.96v12.83h-4.86v-2.64h-.17c-.31.59-.72,1.11-1.23,1.56-.51.45-1.13.8-1.86,1.06-.72.26-1.56.39-2.51.39ZM99.83,166.14c.81,0,1.52-.16,2.13-.48s1.09-.75,1.43-1.29c.34-.55.51-1.15.51-1.82v-2.06c-.15.11-.38.22-.68.31-.31.09-.65.17-1.03.24-.38.07-.75.13-1.11.19-.37.06-.69.1-.98.14-.63.09-1.18.24-1.66.44-.48.2-.85.47-1.11.81-.26.34-.39.76-.39,1.29,0,.49.13.9.38,1.23.25.33.59.59,1.03.76.43.17.93.26,1.49.26Z"/>
    <path class="cls-1" d="M113.37,176.48v-26.16h5.05v3.2h.24c.24-.5.58-1.02,1.02-1.55s1.02-.98,1.74-1.35c.72-.36,1.62-.54,2.7-.54,1.41,0,2.71.36,3.88,1.09,1.17.73,2.11,1.82,2.81,3.27s1.05,3.26,1.05,5.43-.34,3.9-1.03,5.36c-.68,1.46-1.61,2.57-2.79,3.32-1.17.76-2.5,1.13-3.97,1.13-1.04,0-1.92-.18-2.63-.53-.72-.35-1.3-.79-1.75-1.3-.45-.52-.79-1.03-1.03-1.54h-.15v10.17h-5.13ZM122.5,165.58c.89,0,1.64-.24,2.25-.73.61-.49,1.07-1.16,1.39-2.03.31-.86.47-1.85.47-2.96s-.16-2.09-.47-2.95c-.31-.85-.77-1.52-1.38-2.01-.6-.49-1.36-.73-2.26-.73s-1.62.24-2.24.71-1.08,1.13-1.4,1.98c-.32.85-.48,1.85-.48,3.01s.16,2.15.49,3.01c.33.86.8,1.52,1.41,2,.62.48,1.36.72,2.22.72Z"/>
    <path class="cls-1" d="M148.88,158.34v11.02h-5.13v-25.38h5.03v11.09h-.41c.5-1.59,1.26-2.82,2.28-3.69s2.34-1.3,3.96-1.3c1.32,0,2.48.29,3.46.86.99.57,1.75,1.4,2.3,2.47.55,1.07.82,2.35.82,3.84v12.11h-5.15v-11.22c0-1.18-.31-2.11-.92-2.78-.61-.67-1.46-1-2.54-1-.72,0-1.36.16-1.92.47-.56.31-1,.76-1.32,1.35s-.47,1.31-.47,2.16Z"/>
    <path class="cls-1" d="M174.19,169.73c-1.95,0-3.63-.4-5.04-1.19-1.41-.79-2.5-1.92-3.26-3.39s-1.14-3.2-1.14-5.21.38-3.68,1.13-5.16c.75-1.48,1.82-2.63,3.2-3.46,1.38-.83,3-1.24,4.86-1.24,1.25,0,2.42.2,3.51.6,1.08.4,2.04,1,2.86,1.8.82.8,1.46,1.8,1.92,3.01.46,1.2.69,2.62.69,4.26v1.43h-16.06v-3.2h13.55l-2.39.85c0-.99-.15-1.85-.45-2.58-.3-.73-.75-1.3-1.35-1.7-.6-.4-1.34-.6-2.21-.6s-1.64.2-2.27.61-1.09.96-1.41,1.66c-.32.7-.48,1.5-.48,2.39v2.27c0,1.1.19,2.03.56,2.78s.89,1.31,1.56,1.69,1.44.56,2.33.56c.6,0,1.15-.08,1.64-.26s.91-.42,1.26-.76.61-.75.8-1.23l4.65.87c-.31,1.04-.84,1.96-1.61,2.75-.76.79-1.72,1.4-2.86,1.83-1.15.43-2.47.65-3.96.65Z"/>
    <path class="cls-1" d="M188.98,147.83c-.78,0-1.44-.26-1.98-.77-.55-.51-.82-1.13-.82-1.86s.27-1.35.82-1.86c.55-.51,1.21-.77,1.98-.77s1.44.26,1.99.77c.55.51.83,1.13.83,1.86s-.28,1.35-.83,1.86c-.55.51-1.22.77-1.99.77ZM186.42,169.36v-19.04h5.13v19.04h-5.13Z"/>
    <path class="cls-1" d="M204.41,176.89c-1.6,0-2.99-.2-4.17-.6-1.19-.4-2.15-.96-2.89-1.66-.74-.7-1.25-1.5-1.54-2.4l4.41-1.23c.16.35.41.7.74,1.03s.78.61,1.34.83c.56.22,1.25.32,2.07.32,1.31,0,2.34-.3,3.09-.89s1.12-1.52,1.12-2.78v-3.51h-.39c-.23.51-.56,1-.99,1.48-.43.48-1,.87-1.7,1.17s-1.57.45-2.61.45c-1.44,0-2.74-.33-3.92-1s-2.11-1.69-2.81-3.07c-.7-1.37-1.05-3.11-1.05-5.21s.36-3.94,1.07-5.38,1.66-2.53,2.84-3.25c1.18-.73,2.48-1.09,3.89-1.09,1.07,0,1.97.18,2.7.54.73.36,1.32.81,1.77,1.35.45.54.79,1.06,1.02,1.56h.22v-3.2h5.04v18.89c0,1.71-.4,3.14-1.19,4.27s-1.88,1.99-3.27,2.56c-1.39.57-2.99.85-4.79.85ZM204.49,165.2c.88,0,1.62-.22,2.23-.65.61-.43,1.07-1.05,1.39-1.86.32-.81.48-1.79.48-2.92s-.16-2.11-.48-2.95c-.32-.84-.78-1.49-1.39-1.96-.61-.47-1.35-.7-2.23-.7s-1.66.24-2.27.72c-.61.48-1.07,1.14-1.39,1.98s-.47,1.81-.47,2.9.16,2.08.47,2.89c.31.81.78,1.44,1.39,1.88.62.44,1.37.66,2.26.66Z"/>
    <path class="cls-1" d="M223.17,158.34v11.02h-5.13v-25.38h5.03v11.09h-.41c.5-1.59,1.26-2.82,2.28-3.69s2.34-1.3,3.96-1.3c1.32,0,2.48.29,3.46.86.99.57,1.75,1.4,2.3,2.47.55,1.07.82,2.35.82,3.84v12.11h-5.15v-11.22c0-1.18-.31-2.11-.92-2.78-.61-.67-1.46-1-2.54-1-.72,0-1.36.16-1.92.47-.56.31-1,.76-1.32,1.35s-.47,1.31-.47,2.16Z"/>
    <path class="cls-1" d="M249.34,150.32v3.9h-11.34v-3.9h11.34ZM240.63,145.79h5.13v18c0,.6.13,1.05.4,1.34s.72.43,1.34.43c.19,0,.47-.03.82-.08.35-.05.62-.1.8-.14l.74,3.83c-.57.17-1.14.29-1.7.36-.56.07-1.1.1-1.62.1-1.92,0-3.38-.47-4.4-1.4-1.02-.93-1.52-2.27-1.52-4v-18.45Z"/>
  </g>
  <g>
    <path class="cls-1" d="M70.16,364.61v-25.38h10.11c1.87,0,3.43.28,4.68.84,1.25.56,2.18,1.33,2.81,2.31.62.98.93,2.1.93,3.37,0,1-.2,1.87-.6,2.61-.4.74-.94,1.35-1.63,1.82-.69.47-1.47.81-2.35,1.01v.26c.96.03,1.86.3,2.71.81.85.51,1.54,1.21,2.07,2.11.53.9.8,1.98.8,3.23,0,1.34-.33,2.54-.99,3.59-.66,1.06-1.64,1.89-2.93,2.5-1.29.61-2.9.91-4.83.91h-10.76ZM75.38,349.9h4.12c.74,0,1.41-.13,2-.4.59-.27,1.06-.65,1.39-1.14.34-.49.5-1.08.5-1.76,0-.92-.33-1.67-.98-2.25-.66-.58-1.59-.87-2.81-.87h-4.22v6.42ZM75.38,360.34h4.52c1.53,0,2.65-.29,3.35-.89.71-.59,1.06-1.37,1.06-2.33,0-.72-.17-1.35-.52-1.9-.35-.55-.84-.98-1.48-1.29-.64-.31-1.4-.47-2.27-.47h-4.65v6.88Z"/>
    <path class="cls-1" d="M98.55,364.99c-1.21,0-2.29-.21-3.26-.64-.96-.43-1.72-1.06-2.27-1.91-.55-.85-.83-1.9-.83-3.16,0-1.06.2-1.94.59-2.66.39-.71.93-1.29,1.61-1.72.68-.43,1.45-.76,2.31-.99.86-.23,1.76-.39,2.71-.48,1.11-.11,2-.22,2.68-.32s1.17-.25,1.49-.46c.31-.21.47-.52.47-.93v-.09c0-.54-.11-1-.34-1.38-.23-.38-.57-.66-1.02-.86-.45-.2-.99-.3-1.63-.3s-1.24.1-1.73.3c-.49.2-.89.46-1.2.79-.31.33-.54.7-.68,1.11l-4.7-.77c.33-1.11.88-2.06,1.64-2.83.76-.77,1.71-1.36,2.85-1.77,1.13-.41,2.41-.61,3.84-.61,1.03,0,2.02.12,2.99.37.97.24,1.84.62,2.61,1.13s1.38,1.18,1.83,2c.45.82.68,1.81.68,2.96v12.83h-4.86v-2.64h-.17c-.31.59-.72,1.11-1.23,1.56-.51.45-1.13.8-1.86,1.06-.72.26-1.56.39-2.51.39ZM100.01,361.39c.81,0,1.52-.16,2.13-.48.61-.32,1.09-.75,1.43-1.29.34-.54.51-1.15.51-1.82v-2.06c-.15.11-.38.22-.68.31-.31.09-.65.17-1.03.24-.38.07-.75.13-1.11.19-.37.06-.69.1-.98.14-.63.09-1.18.24-1.66.44-.48.21-.85.47-1.11.81-.26.33-.39.76-.39,1.29,0,.49.13.9.38,1.24.25.33.59.59,1.03.76.43.17.93.26,1.49.26Z"/>
    <path class="cls-1" d="M121.15,364.99c-1.54,0-2.9-.22-4.09-.66-1.19-.44-2.16-1.07-2.91-1.91-.75-.83-1.24-1.84-1.45-3.02l4.77-.82c.25.89.69,1.55,1.32,1.99.63.44,1.46.66,2.51.66.98,0,1.75-.18,2.32-.55s.85-.84.85-1.41c0-.5-.2-.91-.61-1.23-.4-.32-1.02-.56-1.86-.73l-3.3-.68c-1.85-.38-3.23-1.01-4.14-1.92-.91-.9-1.37-2.06-1.37-3.48,0-1.23.34-2.28,1.01-3.16s1.61-1.56,2.81-2.04c1.2-.48,2.6-.71,4.22-.71,1.5,0,2.81.21,3.92.62,1.11.41,2,1,2.69,1.76s1.14,1.66,1.37,2.69l-4.55.8c-.19-.65-.57-1.18-1.12-1.59-.55-.41-1.3-.62-2.23-.62-.84,0-1.55.18-2.12.53-.57.35-.85.82-.85,1.41,0,.48.19.88.56,1.21.37.33,1.01.58,1.91.77l3.44.68c1.85.37,3.22.99,4.12,1.83.9.85,1.35,1.95,1.35,3.31,0,1.25-.37,2.34-1.09,3.28-.73.94-1.74,1.67-3.02,2.19-1.28.52-2.76.78-4.44.78Z"/>
    <path class="cls-1" d="M141.81,364.99c-1.95,0-3.63-.4-5.04-1.19-1.41-.79-2.5-1.92-3.26-3.39s-1.14-3.2-1.14-5.21.38-3.68,1.13-5.16c.75-1.48,1.82-2.63,3.2-3.46,1.38-.83,3-1.24,4.86-1.24,1.25,0,2.42.2,3.51.6,1.08.4,2.04,1,2.86,1.8.82.8,1.46,1.8,1.92,3.01.46,1.2.69,2.62.69,4.26v1.43h-16.06v-3.2h13.55l-2.39.85c0-.99-.15-1.85-.45-2.58-.3-.73-.75-1.3-1.35-1.7s-1.34-.6-2.21-.6-1.64.2-2.27.61c-.62.41-1.09.96-1.41,1.66-.32.7-.48,1.5-.48,2.39v2.27c0,1.1.19,2.03.56,2.78.37.75.89,1.31,1.56,1.69.67.37,1.44.56,2.33.56.6,0,1.15-.08,1.64-.26.49-.17.91-.42,1.26-.76.35-.33.61-.75.8-1.23l4.65.87c-.31,1.04-.84,1.96-1.61,2.75-.76.79-1.72,1.4-2.86,1.83s-2.47.65-3.96.65Z"/>
    <path class="cls-1" d="M159.17,339.24v25.38h-5.13v-25.38h5.13Z"/>
    <path class="cls-1" d="M166.09,343.08c-.78,0-1.44-.26-1.98-.77s-.82-1.13-.82-1.86.27-1.35.82-1.86,1.21-.77,1.98-.77,1.44.26,1.99.77c.55.51.83,1.13.83,1.86s-.28,1.35-.83,1.86c-.55.51-1.22.77-1.99.77ZM163.53,364.61v-19.04h5.13v19.04h-5.13Z"/>
    <path class="cls-1" d="M178.15,353.59v11.02h-5.13v-19.04h4.84l.09,4.75h-.31c.5-1.59,1.26-2.82,2.28-3.69,1.02-.87,2.34-1.3,3.96-1.3,1.32,0,2.48.29,3.46.86.99.57,1.75,1.4,2.29,2.47.54,1.07.81,2.35.81,3.84v12.11h-5.13v-11.22c0-1.18-.31-2.11-.92-2.78s-1.46-1-2.54-1c-.72,0-1.36.16-1.92.47-.56.31-1,.76-1.32,1.35-.31.59-.47,1.31-.47,2.16Z"/>
    <path class="cls-1" d="M203.46,364.99c-1.95,0-3.63-.4-5.04-1.19-1.41-.79-2.5-1.92-3.26-3.39s-1.14-3.2-1.14-5.21.38-3.68,1.13-5.16c.75-1.48,1.82-2.63,3.2-3.46,1.38-.83,3-1.24,4.86-1.24,1.25,0,2.42.2,3.51.6,1.08.4,2.04,1,2.86,1.8.82.8,1.46,1.8,1.92,3.01.46,1.2.69,2.62.69,4.26v1.43h-16.06v-3.2h13.55l-2.39.85c0-.99-.15-1.85-.45-2.58-.3-.73-.75-1.3-1.35-1.7s-1.34-.6-2.21-.6-1.64.2-2.27.61c-.62.41-1.09.96-1.41,1.66-.32.7-.48,1.5-.48,2.39v2.27c0,1.1.19,2.03.56,2.78.37.75.89,1.31,1.56,1.69.67.37,1.44.56,2.33.56.6,0,1.15-.08,1.64-.26.49-.17.91-.42,1.26-.76.35-.33.61-.75.8-1.23l4.65.87c-.31,1.04-.84,1.96-1.61,2.75-.76.79-1.72,1.4-2.86,1.83s-2.47.65-3.96.65Z"/>
  </g>
</svg>